# File created by Blade
# Date/Time:  Tue Sep 30 19:12:01 2014
#---------------------------------------------------------
:version 1.10
:name HOM
:units
  mass 1.0
  length 1.000000
  angle deg
:documentation
     Acclaim Skeleton File
:root
   axis xyz
   order TX TY TZ RX RY RZ
   position 0.000000 0.000000 0.000000
   orientation 0 0 0
:bonedata
   begin
      id 1
      name Spine_dum
      direction 0.000000 1.000000 0.000000
      length 7.508948
      axis 0.0 0.0 0.0 xyz
   end
   begin
      id 2
      name LeftUpLeg_dum
      direction 1.000000 0.000000 0.000000
      length 3.000560
      axis 0.0 0.0 0.0 xyz
   end
   begin
      id 3
      name RightUpLeg_dum
      direction -1.000000 0.000000 0.000000
      length 3.000560
      axis 0.0 0.0 0.0 xyz
   end
   begin
      id 4
      name Spine
      direction 0.000000 1.000000 0.000000
      length 0.000000
      axis 0.0 0.0 0.0 xyz
      dof rx ry rz
   end
   begin
      id 5
      name Spine_dum1
      direction 0.000000 1.000000 0.000000
      length 13.861154
      axis 0.0 0.0 0.0 xyz
   end
   begin
      id 6
      name Spine_dum2
      direction 0.000000 1.000000 0.000000
      length 8.204781
      axis 0.0 0.0 0.0 xyz
   end
   begin
      id 7
      name Spine_dum3
      direction 0.000000 1.000000 0.000000
      length 8.204781
      axis 0.0 0.0 0.0 xyz
   end
   begin
      id 8
      name Head
      direction 0.000000 1.000000 0.000000
      length 4.527550
      axis 0.0 0.0 0.0 xyz
      dof rx ry rz
   end
   begin
      id 9
      name LeftShoulder
      direction 1.000000 0.000000 0.000000
      length 6.635956
      axis 0.0 0.0 -90.0 xyz
      dof rx ry rz
   end
   begin
      id 10
      name LeftArm
      direction 1.000000 0.000000 0.000000
      length 10.274218
      axis 0.0 0.0 -90.0 xyz
      dof rx ry rz
   end
   begin
      id 11
      name LeftForeArm
      direction 1.000000 0.000000 0.000000
      length 8.522147
      axis 0.0 0.0 -90.0 xyz
      dof ry rz rx
   end
   begin
      id 12
      name LeftHand
      direction 0.000000 0.000000 0.000000
      length 0.000000
      axis 0.0 0.0 -90.0 xyz
      dof rx ry rz
   end
   begin
      id 13
      name LeftHand_dum1
      direction 0.000000 0.000000 0.000000
      length 0.000000
      axis 0.0 0.0 -90.0 xyz
   end
   begin
      id 14
      name LeftHand_dum2
      direction 1.000000 0.000000 0.000000
      length 3.937000
      axis 0.0 0.0 -90.0 xyz
   end
   begin
      id 15
      name LeftHandThumb1
      direction 0.000000 0.000000 1.000000
      length 3.937000
      axis 0.0 0.0 -90.0 xyz
      dof rx rz ry
   end
   begin
      id 16
      name RightShoulder
      direction -1.000000 0.000000 0.000000
      length 6.635956
      axis 0.0 0.0 90.0 xyz
      dof rx ry rz
   end
   begin
      id 17
      name RightArm
      direction -1.000000 0.000000 0.000000
      length 10.274218
      axis 0.0 0.0 90.0 xyz
      dof rx ry rz
   end
   begin
      id 18
      name RightForeArm
      direction -1.000000 0.000000 0.000000
      length 8.522147
      axis 0.0 0.0 90.0 xyz
      dof ry rz rx
   end
   begin
      id 19
      name RightHand
      direction 0.000000 0.000000 0.000000
      length 0.000000
      axis 0.0 0.0 90.0 xyz
      dof rx ry rz
   end
   begin
      id 20
      name RightHand_dum1
      direction 0.000000 0.000000 0.000000
      length 0.000000
      axis 0.0 0.0 90.0 xyz
   end
   begin
      id 21
      name RightHand_dum2
      direction -1.000000 0.000000 0.000000
      length 3.937000
      axis 0.0 0.0 90.0 xyz
   end
   begin
      id 22
      name RightHandThumb1
      direction 0.000000 0.000000 1.000000
      length 3.937000
      axis 0.0 0.0 90.0 xyz
      dof rx rz ry
   end
   begin
      id 23
      name LeftUpLeg
      direction 0.000000 -1.000000 0.000000
      length 16.490845
      axis 0.0 0.0 0.0 xyz
      dof rx ry rz
   end
   begin
      id 24
      name LeftLeg
      direction 0.000000 -1.000000 0.000000
      length 14.556576
      axis 0.0 0.0 0.0 xyz
      dof rx ry rz
   end
   begin
      id 25
      name LeftFoot
      direction 0.000000 -0.258819 0.965926
      length 4.831116
      axis 15.0 0.0 0.0 xyz
      dof rx ry rz
   end
   begin
      id 26
      name LeftToeBase
      direction 0.000000 0.000000 1.000000
      length 2.952750
      axis 0.0 0.0 0.0 xyz
      dof rx ry rz
   end
   begin
      id 27
      name RightUpLeg
      direction 0.000000 -1.000000 0.000000
      length 16.490845
      axis 0.0 0.0 0.0 xyz
      dof rx ry rz
   end
   begin
      id 28
      name RightLeg
      direction 0.000000 -1.000000 0.000000
      length 14.556576
      axis 0.0 0.0 0.0 xyz
      dof rx ry rz
   end
   begin
      id 29
      name RightFoot
      direction 0.000000 -0.258819 0.965926
      length 4.831116
      axis 15.0 0.0 0.0 xyz
      dof rx ry rz
   end
   begin
      id 30
      name RightToeBase
      direction 0.000000 0.000000 1.000000
      length 2.952750
      axis 0.0 0.0 0.0 xyz
      dof rx ry rz
   end
:hierarchy
   begin
      root Spine_dum LeftUpLeg_dum RightUpLeg_dum
      Spine_dum Spine
      LeftUpLeg_dum LeftUpLeg
      RightUpLeg_dum RightUpLeg
      Spine Spine_dum1 Spine_dum2 Spine_dum3
      Spine_dum1 Head
      Spine_dum2 LeftShoulder
      Spine_dum3 RightShoulder
      LeftShoulder LeftArm
      LeftArm LeftForeArm
      LeftForeArm LeftHand
      LeftHand LeftHand_dum1 LeftHand_dum2
      LeftHand_dum1 LeftHandThumb1
      RightShoulder RightArm
      RightArm RightForeArm
      RightForeArm RightHand
      RightHand RightHand_dum1 RightHand_dum2
      RightHand_dum1 RightHandThumb1
      LeftUpLeg LeftLeg
      LeftLeg LeftFoot
      LeftFoot LeftToeBase
      RightUpLeg RightLeg
      RightLeg RightFoot
      RightFoot RightToeBase
   end

# File created by Blade
# Date/Time:  Thu Sep 25 17:14:50 2014
# Frame Rate: 120.000 fps
#------------------------------------------------------
:FULLY-SPECIFIED
:DEGREES
31
root 0.244573 32.867340 -2.851777 12.956529 2.871007 -1.174191
Spine -12.097804 5.370652 0.412684
Head -12.550290 -5.755817 10.059279
LeftShoulder -12.922512 22.399173 28.070511
LeftArm 22.940089 -22.713613 -33.005627
LeftForeArm 7.469912 -0.000000 13.411358
LeftHand -30.208253 -0.000000 -2.763401
LeftHandThumb1 -26.253704 0.000000 33.147579
RightShoulder -19.648438 12.216797 -40.258495
RightArm -7.794479 9.333335 33.527323
RightForeArm -28.432203 0.000000 16.737075
RightHand -10.497519 -0.000000 7.813243
RightHandThumb1 -24.326973 -0.000000 -32.862282
LeftUpLeg -8.072880 2.823582 2.422212
LeftLeg 0.210744 -0.000000 -0.000000
LeftFoot -12.111401 9.565953 -18.979027
LeftToeBase 4.080492 -0.000000 -0.000000
RightUpLeg -10.179973 -8.579239 1.279512
RightLeg 3.506481 -0.000000 -0.000000
RightFoot -9.780172 -2.817770 -3.138276
RightToeBase 0.825260 -0.000000 -0.000000
32
root 0.243758 32.867121 -2.849652 12.958429 2.873443 -1.182262
Spine -12.103761 5.374575 0.415048
Head -12.511928 -5.770950 10.077345
LeftShoulder -12.947944 22.268839 28.091126
LeftArm 22.913461 -22.601229 -32.983561
LeftForeArm 7.481066 -0.000000 13.387868
LeftHand -30.223071 -0.000000 -2.774162
LeftHandThumb1 -26.253704 0.000000 33.147579
RightShoulder -19.635718 12.229478 -40.243950
RightArm -7.797497 9.317517 33.495737
RightForeArm -28.440835 -0.000000 16.755303
RightHand -10.527599 0.000000 7.795322
RightHandThumb1 -24.326973 -0.000000 -32.862282
LeftUpLeg -8.070221 2.818917 2.434184
LeftLeg 0.207909 -0.000000 -0.000000
LeftFoot -12.116544 9.569231 -18.968060
LeftToeBase 4.104816 -0.000000 -0.000000
RightUpLeg -10.199131 -8.524528 1.274904
RightLeg 3.573304 -0.000000 -0.000000
RightFoot -9.814131 -2.912943 -3.157377
RightToeBase 0.830647 -0.000000 -0.000000
33
root 0.243052 32.866170 -2.846442 12.959419 2.886083 -1.172906
Spine -12.110023 5.354705 0.408812
Head -12.454489 -5.775202 10.062147
LeftShoulder -12.952668 22.280045 28.070269
LeftArm 22.913630 -22.542961 -32.919536
LeftForeArm 7.394221 -0.000000 13.317247
LeftHand -30.157956 -0.000000 -2.702090
LeftHandThumb1 -26.253704 0.000000 33.147579
RightShoulder -19.627352 12.226272 -40.252921
RightArm -7.777543 9.326095 33.501071
RightForeArm -28.473945 -0.000000 16.772145
RightHand -10.543387 -0.000000 7.779867
RightHandThumb1 -24.326973 -0.000000 -32.862282
LeftUpLeg -8.052382 2.754321 2.437272
LeftLeg 0.179221 -0.000000 -0.000000
LeftFoot -12.124719 9.629213 -18.968211
LeftToeBase 4.071470 -0.000000 -0.000000
RightUpLeg -10.215269 -8.527343 1.274136
RightLeg 3.606506 -0.000000 -0.000000
RightFoot -9.849390 -2.898685 -3.114076
RightToeBase 0.854411 -0.000000 -0.000000
34
root 0.242041 32.865789 -2.843280 12.960408 2.893337 -1.171715
Spine -12.115620 5.350975 0.398372
Head -12.404155 -5.785407 10.088183
LeftShoulder -12.958033 22.279244 28.071855
LeftArm 22.920592 -22.549938 -32.918720
LeftForeArm 7.405323 -0.000000 13.308178
LeftHand -30.180819 -0.000000 -2.679444
LeftHandThumb1 -26.253704 0.000000 33.147579
RightShoulder -19.622788 12.218676 -40.247003
RightArm -7.769874 9.318126 33.495459
RightForeArm -28.520928 -0.000000 16.801914
RightHand -10.573581 -0.000000 7.787409
RightHandThumb1 -24.326973 -0.000000 -32.862282
LeftUpLeg -8.037784 2.724806 2.443756
LeftLeg 0.158561 -0.000000 -0.000000
LeftFoot -12.118975 9.643052 -18.985580
LeftToeBase 4.038420 -0.000000 -0.000000
RightUpLeg -10.234220 -8.504904 1.271365
RightLeg 3.660498 -0.000000 -0.000000
RightFoot -9.903759 -2.913394 -3.078689
RightToeBase 0.881952 -0.000000 -0.000000
35
root 0.240813 32.865237 -2.839311 12.966098 2.891275 -1.175515
Spine -12.130329 5.358748 0.397385
Head -12.338677 -5.789607 10.084345
LeftShoulder -12.959322 22.293243 28.056510
LeftArm 22.918982 -22.554629 -32.896418
LeftForeArm 7.417714 0.000000 13.313366
LeftHand -30.196923 -0.000000 -2.681113
LeftHandThumb1 -26.253704 0.000000 33.147579
RightShoulder -19.614120 12.218361 -40.243963
RightArm -7.758397 9.302472 33.476977
RightForeArm -28.574238 -0.000000 16.801425
RightHand -10.553318 -0.000000 7.764711
RightHandThumb1 -24.326973 -0.000000 -32.862282
LeftUpLeg -8.015522 2.680955 2.455106
LeftLeg 0.116508 -0.000000 -0.000000
LeftFoot -12.130840 9.691820 -18.994589
LeftToeBase 4.111828 -0.000000 -0.000000
RightUpLeg -10.250042 -8.452507 1.267866
RightLeg 3.700693 -0.000000 -0.000000
RightFoot -9.929429 -2.952375 -3.066130
RightToeBase 0.866745 -0.000000 -0.000000
36
root 0.238669 32.864832 -2.837146 12.976444 2.898604 -1.178482
Spine -12.141199 5.377446 0.386251
Head -12.286749 -5.828738 10.104181
LeftShoulder -12.951159 22.299301 28.052557
LeftArm 22.937877 -22.575539 -32.889337
LeftForeArm 7.433809 -0.000000 13.312847
LeftHand -30.228962 -0.000000 -2.652099
LeftHandThumb1 -26.253704 0.000000 33.147579
RightShoulder -19.622118 12.207377 -40.248350
RightArm -7.767320 9.302017 33.462471
RightForeArm -28.603496 0.000000 16.829239
RightHand -10.538271 -0.000000 7.826033
RightHandThumb1 -24.326973 -0.000000 -32.862282
LeftUpLeg -8.016425 2.636068 2.469067
LeftLeg 0.101990 -0.000000 -0.000000
LeftFoot -12.132427 9.728804 -19.001833
LeftToeBase 4.052825 -0.000000 -0.000000
RightUpLeg -10.281007 -8.413982 1.270099
RightLeg 3.758011 -0.000000 -0.000000
RightFoot -9.975493 -2.991649 -3.062098
RightToeBase 0.928072 -0.000000 -0.000000
